<svg width="37" height="28" viewBox="0 0 37 28" fill="none" xmlns="http://www.w3.org/2000/svg">
<path d="M0 3.29087V2.33333C0 1.71449 0.243638 1.121 0.677316 0.683417C1.11099 0.245833 1.69919 0 2.3125 0L34.6875 0C35.3008 0 35.889 0.245833 36.3227 0.683417C36.7564 1.121 37 1.71449 37 2.33333V3.29087L18.5 14.9575L0 3.29087ZM19.1128 17.323C18.929 17.4387 18.7167 17.5001 18.5 17.5001C18.2833 17.5001 18.071 17.4387 17.8872 17.323L0 6.04246V25.6667C0 26.2855 0.243638 26.879 0.677316 27.3166C1.11099 27.7542 1.69919 28 2.3125 28H34.6875C35.3008 28 35.889 27.7542 36.3227 27.3166C36.7564 26.879 37 26.2855 37 25.6667V6.04246L19.1128 17.323Z" fill="black"/>
</svg>
