<svg xmlns="http://www.w3.org/2000/svg" width="249" height="58" viewBox="0 0 249 58" fill="none">
  <path d="M49.4155 22.697V28.698H59.1498V32.103H49.4155V41.1139H45.7144V19.2545H60.3394L60.3111 22.697H49.4155Z" fill="#201F1F"/>
  <path d="M72.708 36.1381L70.508 41.1139H66.552L76.2202 19.2545H80.1763L89.8445 41.1139H85.8885L83.6886 36.1381H72.708ZM82.1874 32.7332L78.203 23.7223L74.2186 32.7332H82.1874Z" fill="#201F1F"/>
  <path d="M102.874 41.1139H99.1729V19.2545H104.951L111.579 32.9777L118.207 19.2545H123.948V41.1139H120.247V24.0421L112.589 39.2045H110.522L102.893 24.0421V41.1139H102.874Z" fill="#201F1F"/>
  <path d="M136.307 19.2545H140.008V41.1139H136.307V19.2545Z" fill="#201F1F"/>
  <path d="M152.376 41.1139V19.2545H156.078V37.6055H166.095V41.1045H152.376V41.1139Z" fill="#201F1F"/>
  <path d="M182.986 41.1139H179.219V32.4792L171.062 19.2545H175.112L181.107 29.1965L187.103 19.2545H191.153L182.996 32.4792V41.1139H182.986Z" fill="#201F1F"/>
  <path d="M212.189 19.2545H215.89V41.1139H212.189V19.2545Z" fill="#201F1F"/>
  <path d="M244.867 22.1139C246.982 24.0233 248.039 26.6758 248.039 30.0713C248.039 33.4668 247.01 36.1569 244.961 38.1416C242.912 40.1262 239.768 41.1139 235.548 41.1139H228.268V19.2545H235.803C239.73 19.2545 242.752 20.2045 244.867 22.1139ZM244.3 30.1654C244.3 25.1614 241.421 22.6594 235.671 22.6594H231.969V37.6431H236.086C238.739 37.6431 240.778 37.0129 242.195 35.7525C243.602 34.4921 244.3 32.6297 244.3 30.1654Z" fill="#201F1F"/>
  <path d="M25.9624 1.41534L25.5847 0.898018L24.9804 1.12376C13.3861 5.43168 4.88864 14.0569 1.66904 24.7797C1.26305 26.1247 0.942032 27.5168 0.705991 28.9183L0.592692 29.7178L0.573809 29.8683C0.498276 30.4421 0.432183 31.0252 0.384975 31.599L0.309442 32.7089C0.300001 32.85 0.290559 32.9911 0.281118 33.1416V33.2827C0.252793 34.0822 0.262235 34.9193 0.300001 35.8599C0.517159 41.2683 1.95229 46.5639 4.55818 51.6148C5.06803 52.6119 5.66285 53.6371 6.36153 54.7376C6.59757 55.1139 6.83361 55.4807 7.0791 55.8475L7.8061 56.901C7.90052 57.0327 7.98549 57.1644 8.07991 57.296L8.24986 57.5218L8.30651 57.597L8.47646 57.804L9.06184 57.5876C20.6467 53.2797 29.1442 44.6545 32.3732 33.9317C35.6023 23.2183 33.2702 11.3668 25.9624 1.41534ZM11.1107 41.9832C9.58113 37.8351 6.36153 34.4772 2.01838 32.5114C2.05615 31.853 2.13168 31.1569 2.22609 30.395C2.71706 29.6896 3.25523 29.0218 3.82173 28.3916C8.83524 31.251 12.1776 35.8223 12.999 40.9861C13.49 44.0431 13.084 47.1941 11.8377 50.1569C12.3003 47.354 12.0643 44.551 11.1107 41.9832ZM14.6985 40.704C13.7827 34.9757 10.091 29.953 4.52041 26.8208C5.54955 25.5416 6.71087 24.3658 7.99493 23.3124C13.3483 27.4416 16.4546 33.3015 16.5396 39.4247C16.5868 42.7921 15.7087 46.1406 14.0093 49.1975C14.9062 46.4134 15.1423 43.5163 14.6985 40.704ZM18.2485 39.4059C18.1541 32.5396 14.5946 26.0307 8.4859 21.5535L8.21209 21.3559C9.42062 20.2178 10.7519 19.1644 12.2059 18.2332C17.8898 23.6698 20.76 30.8183 20.0897 37.9104C19.7498 41.4564 18.5224 44.899 16.5207 47.9936C17.7009 45.2564 18.2863 42.3594 18.2485 39.4059ZM21.7892 38.0609C22.5256 30.2257 19.2871 22.3812 12.8857 16.5307L12.4136 16.0886L11.866 16.4272C11.2051 16.8411 10.5631 17.2644 9.93991 17.7158C11.8566 15.9569 14.0376 14.4049 16.4452 13.1257C22.469 19.8698 25.0937 28.3351 23.6492 36.396C22.9694 40.2054 21.4304 43.7703 19.1266 46.9307C20.5901 44.1653 21.4965 41.1743 21.7892 38.0609ZM25.3203 36.7064C26.8971 27.9119 23.9513 18.7223 17.2572 11.4985L16.8229 11.0282L16.2469 11.3198C14.047 12.4391 11.9982 13.7747 10.1476 15.2891C13.0556 12.3356 16.6057 9.88069 20.7034 8.03713C27.0576 16.1074 29.418 25.8802 27.1992 34.9193C26.2456 38.8134 24.48 42.4347 21.9969 45.6421C23.6303 42.8673 24.7538 39.8574 25.3203 36.7064ZM9.5056 42.5663C10.9313 46.4416 10.5536 50.8906 8.47646 54.8975C4.18051 48.5203 1.94285 41.4564 1.96173 34.3738C5.55899 36.1797 8.22153 39.0673 9.5056 42.5663ZM28.8515 35.3332C31.2497 25.5698 28.6155 15.054 21.6192 6.46633L21.2132 5.96782L20.6184 6.22178C17.0117 7.77376 13.7732 9.79604 10.969 12.204C14.7174 8.25346 19.4854 5.08366 24.971 2.94851C31.6557 12.345 33.7612 23.4441 30.7493 33.4614C29.5502 37.4495 27.5863 41.146 24.9332 44.4193C26.7366 41.6069 28.0584 38.55 28.8515 35.3332Z" fill="#EDC228"/>
</svg>