<svg width="33" height="30" viewBox="0 0 33 30" fill="none" xmlns="http://www.w3.org/2000/svg">
<path d="M4.83214 25.1183C11.2763 30.8648 21.7227 30.8648 28.1669 25.1183C34.611 19.3718 34.611 10.0564 28.1669 4.30988C21.7227 -1.43663 11.2763 -1.43663 4.83214 4.30988C-1.61071 10.0564 -1.61071 19.3718 4.83214 25.1183ZM12.1515 5.56347L14.6066 7.75285C15.0977 8.19072 15.202 8.86754 14.8614 9.40782L13.9387 10.8686C13.8279 11.0437 13.7846 11.2464 13.8153 11.4456C13.8461 11.6449 13.9493 11.8296 14.109 11.9715L19.5751 16.8458C19.7344 16.9881 19.9416 17.0798 20.165 17.107C20.3884 17.1343 20.6156 17.0954 20.8119 16.9965L22.45 16.1737C22.7447 16.0256 23.0857 15.9676 23.4209 16.0086C23.756 16.0496 24.0669 16.1874 24.3059 16.4009L26.7624 18.5914C27.0526 18.8507 27.2156 19.2021 27.2156 19.5684C27.2156 19.9347 27.0526 20.2861 26.7624 20.5454L25.5995 21.5824C24.9544 22.1563 24.1149 22.5242 23.2112 22.6292C22.3076 22.7341 21.3904 22.5701 20.602 22.1627L20.4911 22.1062C15.672 19.6506 11.6412 16.1321 8.7855 11.8879L8.22715 11.0569C7.75256 10.3528 7.55569 9.5273 7.66787 8.71187C7.78005 7.89645 8.19483 7.1379 8.84622 6.55693L9.96029 5.56347C10.1041 5.43506 10.2749 5.33319 10.4629 5.26369C10.6509 5.19418 10.8524 5.15841 11.0559 5.15841C11.2594 5.15841 11.4609 5.19418 11.6489 5.26369C11.8369 5.33319 12.0077 5.43506 12.1515 5.56347Z" fill="black"/>
</svg>
